<?xml version="1.0" encoding="UTF-8"?>
<svg id="Ebene_2" data-name="Ebene 2" xmlns="http://www.w3.org/2000/svg" viewBox="0 0 385.38 123.01">
  <defs>
    <style>
      .cls-1 {
        fill: #29b78b;
      }
    </style>
  </defs>
  <g id="Ebene_2-2" data-name="Ebene 2">
    <g>
      <path class="cls-1" d="m0,0v76.88l49.38,46.13,49.38-46.13V0H0Zm43.32,60.63v38.79l-31.48-27.6V13.2h31.48v5.76l6.06,5.2,6.06-5.2v-5.76h31.48v58.63l-31.48,27.6v-38.79l-5.39,3.96c-.19.14-.42.22-.67.22s-.47-.08-.67-.22l-5.39-3.95v-.02Z"/>
      <polygon class="cls-1" points="65.33 39.97 65.33 77.97 77.5 67.21 77.5 21.24 65.33 21.24 49.36 36.51 33.42 21.24 21.25 21.24 21.25 67.21 33.42 77.97 33.42 39.97 48.82 52.65 65.33 39.97"/>
    </g>
    <g>
      <path d="m119.68,77.83c0-2.1.16-4.05.49-5.85.32-1.8.94-3.49,1.84-5.06.9-1.57,2.12-3.06,3.67-4.46,1.55-1.4,3.55-2.77,6-4.12,1.75-.95,3.4-1.82,4.95-2.62s2.91-1.6,4.09-2.4c1.17-.8,2.11-1.64,2.81-2.51s1.05-1.89,1.05-3.04c0-1.6-.69-3.04-2.06-4.31-1.38-1.27-3.36-1.91-5.96-1.91-1.35,0-2.59.19-3.71.56-1.13.38-2.15.85-3.07,1.42-.93.58-1.74,1.21-2.44,1.91s-1.32,1.37-1.87,2.02l-5.25-6.07c.5-.55,1.29-1.24,2.36-2.06,1.07-.83,2.37-1.61,3.9-2.36,1.52-.75,3.26-1.39,5.21-1.91,1.95-.52,4.07-.79,6.37-.79s4.56.31,6.49.94c1.92.63,3.55,1.49,4.87,2.59,1.33,1.1,2.34,2.41,3.04,3.94s1.05,3.16,1.05,4.91c0,1.85-.38,3.49-1.12,4.91-.75,1.42-1.68,2.66-2.78,3.71s-2.3,1.96-3.6,2.74c-1.3.78-2.5,1.46-3.6,2.06-1,.5-2.11,1.1-3.34,1.8s-2.4,1.48-3.52,2.33c-1.13.85-2.13,1.8-3,2.85-.88,1.05-1.49,2.17-1.84,3.37h23.62v7.42h-34.65Z"/>
      <path d="m191.44,70.27v7.55h-28.57v-7.55h10.65v-26.62c-.45.61-1.16,1.25-2.14,1.91s-2.04,1.27-3.19,1.83c-1.15.56-2.35,1.03-3.6,1.41s-2.35.57-3.3.57v-7.86c1,0,2.16-.31,3.49-.92,1.32-.61,2.61-1.32,3.86-2.14,1.25-.81,2.32-1.63,3.22-2.44.9-.81,1.45-1.4,1.65-1.75h8.4v36.01h9.53Z"/>
      <path d="m236.81,77.95v-31.61l-13.05,23.94h-3.84l-13.11-23.94v31.61h-6.93v-43.91h7.42l14.54,26.84,14.53-26.84h7.42v43.91h-6.99.01Z"/>
      <path d="m252.71,40.28v-7.48h6.8v7.48h-6.8Zm0,37.67v-32.35h6.8v32.35h-6.8Z"/>
      <path d="m267.55,32.8h6.8v35.63c0,1.2.31,2.13.93,2.81s1.49,1.02,2.6,1.02c.45,0,.99-.07,1.61-.22s1.19-.34,1.73-.59l.99,5.5c-.99.45-2.16.81-3.53,1.08-1.36.27-2.58.4-3.65.4-2.35,0-4.19-.64-5.5-1.92-1.32-1.28-1.98-3.09-1.98-5.44v-38.29.02Z"/>
      <path d="m285.98,32.8h6.8v35.63c0,1.2.31,2.13.93,2.81s1.49,1.02,2.6,1.02c.45,0,.99-.07,1.61-.22s1.19-.34,1.73-.59l.99,5.5c-.99.45-2.16.81-3.53,1.08-1.36.27-2.58.4-3.65.4-2.35,0-4.19-.64-5.5-1.92-1.32-1.28-1.98-3.09-1.98-5.44v-38.29.02Z"/>
      <path d="m304.35,40.28v-7.48h6.8v7.48h-6.8Zm0,37.67v-32.35h6.8v32.35h-6.8Z"/>
      <path d="m333.8,78.57c-2.56,0-4.86-.45-6.9-1.36s-3.78-2.12-5.23-3.65c-1.44-1.52-2.56-3.31-3.34-5.35s-1.18-4.18-1.18-6.4.39-4.36,1.18-6.4c.78-2.04,1.91-3.82,3.37-5.35s3.22-2.74,5.26-3.65,4.32-1.36,6.84-1.36,4.79.45,6.83,1.36c2.04.91,3.79,2.12,5.26,3.65s2.59,3.31,3.37,5.35c.78,2.04,1.17,4.18,1.17,6.4s-.39,4.36-1.17,6.4-1.91,3.82-3.37,5.35-3.22,2.74-5.26,3.65-4.32,1.36-6.83,1.36Zm-9.65-16.7c0,1.57.25,3.01.74,4.33.5,1.32,1.18,2.46,2.04,3.43.87.97,1.89,1.73,3.06,2.29,1.18.56,2.44.83,3.8.83s2.63-.28,3.8-.83c1.18-.56,2.2-1.33,3.06-2.32.87-.99,1.55-2.14,2.04-3.46.5-1.32.74-2.76.74-4.33s-.25-2.96-.74-4.3-1.17-2.5-2.04-3.5c-.87-.99-1.89-1.76-3.06-2.32-1.17-.56-2.44-.83-3.8-.83s-2.57.29-3.74.87c-1.17.58-2.2,1.36-3.06,2.35-.86.99-1.56,2.16-2.07,3.5-.52,1.34-.77,2.77-.77,4.3h0Z"/>
      <path d="m385.38,77.95h-6.8v-18.12c0-3.05-.5-5.27-1.49-6.65s-2.41-2.07-4.27-2.07c-.99,0-1.99.19-3,.56-1.01.37-1.95.9-2.81,1.58s-1.64,1.48-2.32,2.41-1.21,1.95-1.58,3.06v19.24h-6.8v-32.35h6.19v6.49c1.24-2.19,3.03-3.91,5.38-5.16,2.35-1.26,4.95-1.89,7.79-1.89,1.94,0,3.53.35,4.79,1.05s2.25,1.66,2.97,2.88,1.23,2.62,1.51,4.21c.29,1.59.43,3.27.43,5.04v19.73h0Z"/>
    </g>
  </g>
</svg>